# xmcd
#
# Track frame offsets:
# 150
# 14821
# 26144
# 39988
# 50633
# 65525
# 79205
# 93576
# 111437
# 126502
# 142550
# 153577
# 167270
# 184813
# 202642
# 219817
#
# Disc length: 3108 seconds
#
#
# Revision: 0
# Processed by: cddbd v1.5.1PL2 Copyright (c) Steve Scherf et al.
# Submitted via: FreeRIP 2.943 
#
DISCID=d80c2210
DTITLE=Ricky Skaggs - Country Gentleman   Cd 1
DYEAR=1998
DGENRE=Country
TTITLE0=Don't Get Adove Your Raising
TTITLE1=You May See Me Walkin'
TTITLE2=Crying My Heart Out Over You
TTITLE3=I Don't Care
TTITLE4=Heartbroke
TTITLE5=I Wouldn't Shange You If I Could
TTITLE6=Highway 40 Blues
TTITLE7=You've Got A Lover
TTITLE8=Don't Cheat In Your Hometown
TTITLE9=Honey ( Open That Door )
TTITLE10=Uncle Pen
TTITLE11=Something In My Heart
TTITLE12=Country Boy
TTITLE13=You Make Me Feel Like A Man
TTITLE14=Cajun Moon
TTITLE15=I've Got A New Heartache
EXTD=
EXTT0=
EXTT1=
EXTT2=
EXTT3=
EXTT4=
EXTT5=
EXTT6=
EXTT7=
EXTT8=
EXTT9=
EXTT10=
EXTT11=
EXTT12=
EXTT13=
EXTT14=
EXTT15=
PLAYORDER=
